<svg width="174" height="40" viewBox="0 0 174 40" fill="none" xmlns="http://www.w3.org/2000/svg">
<path d="M6.38263 22.9356H0C0.295884 28.5111 4.90321 31.1299 10.3559 31.1299C15.3014 31.1299 19.8665 29.1024 19.8665 24.2872C19.8665 19.5143 15.8509 18.416 10.525 17.529C8.53835 17.1911 7.43936 16.8532 7.43936 15.8395C7.43936 14.9102 8.36928 14.3189 9.8487 14.3189C11.5817 14.3189 12.5962 15.037 13.0189 16.7265H19.6551C18.8097 11.1088 14.4983 9.16579 9.76416 9.16579C4.77641 9.16579 0.591767 11.1932 0.591767 15.6705C0.591767 20.1478 4.01556 21.2883 9.51054 22.2175C11.5817 22.5554 12.9343 22.9356 12.9343 24.2027C12.9343 25.2587 11.8776 26.019 10.0178 26.019C8.03113 26.019 6.63625 24.963 6.38263 22.9356Z" fill="#1EE883"/>
<path d="M21.9829 1.14044V30.7075H29.5068V19.2186C30.014 17.7825 31.3666 16.5153 33.0997 16.5153C34.9595 16.5153 35.9317 17.5713 35.9317 19.7254V30.7075H43.4979V18.0781C43.4979 11.9113 40.7926 9.16579 36.2698 9.16579C33.5224 9.16579 31.0285 10.3907 29.4223 12.3759C29.5068 11.7846 29.5068 11.1932 29.5068 10.6019V1.14044H21.9829Z" fill="#1EE883"/>
<path d="M56.7334 31.1299C63.4964 31.1299 67.7656 26.4836 67.7656 20.1478C67.7656 13.812 63.4964 9.16579 56.7334 9.16579C49.9703 9.16579 45.6589 13.812 45.6589 20.1478C45.6589 26.4836 49.9703 31.1299 56.7334 31.1299ZM56.7334 24.4984C54.4931 24.4984 52.9291 22.8089 52.9291 20.1478C52.9291 17.529 54.4931 15.7973 56.7334 15.7973C58.9736 15.7973 60.4953 17.529 60.4953 20.1478C60.4953 22.8089 58.9314 24.4984 56.7334 24.4984Z" fill="#1EE883"/>
<path d="M70.031 9.63041V40H77.5548V28.1732C79.1188 30.0317 81.2323 31.1299 83.8107 31.1299C88.9252 31.1299 93.2367 26.9483 93.2367 20.1478C93.2367 13.3474 88.9252 9.20803 83.8107 9.20803C81.2745 9.20803 79.1188 10.2218 77.5548 12.1647V9.63041H70.031ZM81.5704 15.755C83.9375 15.755 85.6705 17.5713 85.6705 20.1478C85.6705 22.7244 83.9375 24.6251 81.6127 24.6251C79.2456 24.6251 77.5548 22.6822 77.5548 20.1478C77.5548 17.6135 79.2456 15.755 81.5704 15.755Z" fill="#1EE883"/>
<path d="M95.4584 9.63041V40H102.982V28.1732C104.546 30.0317 106.66 31.1299 109.238 31.1299C114.353 31.1299 118.664 26.9483 118.664 20.1478C118.664 13.3474 114.353 9.20803 109.238 9.20803C106.702 9.20803 104.546 10.2218 102.982 12.1647V9.63041H95.4584ZM106.998 15.755C109.365 15.755 111.098 17.5713 111.098 20.1478C111.098 22.7244 109.365 24.6251 107.04 24.6251C104.673 24.6251 102.982 22.6822 102.982 20.1478C102.982 17.6135 104.673 15.755 106.998 15.755Z" fill="#1EE883"/>
<path d="M120.886 0V6.67371H128.41V0H120.886ZM120.886 9.63041V30.7075H128.41V9.63041H120.886Z" fill="#1EE883"/>
<path d="M130.692 20.1478C130.692 26.4836 135.088 31.1299 141.767 31.1299C147.727 31.1299 151.658 27.962 152.545 23.0201L145.191 22.9778C144.599 24.7518 143.331 25.4277 141.767 25.4277C139.696 25.4277 138.089 24.0338 137.963 21.3728V21.3305H152.503C152.545 20.9504 152.545 20.6547 152.545 20.3168C152.545 13.2629 148.023 9.16579 141.725 9.16579C135.046 9.16579 130.692 13.812 130.692 20.1478ZM138.005 17.529C138.385 15.6283 139.78 14.4456 141.682 14.4456C143.542 14.4456 144.895 15.5861 145.275 17.529H138.005Z" fill="#1EE883"/>
<path d="M160.516 22.9356H154.134C154.429 28.5111 159.037 31.1299 164.489 31.1299C169.435 31.1299 174 29.1024 174 24.2872C174 19.5143 169.984 18.416 164.659 17.529C162.672 17.1911 161.573 16.8532 161.573 15.8395C161.573 14.9102 162.503 14.3189 163.982 14.3189C165.715 14.3189 166.73 15.037 167.152 16.7265H173.789C172.943 11.1088 168.632 9.16579 163.898 9.16579C158.91 9.16579 154.725 11.1932 154.725 15.6705C154.725 20.1478 158.149 21.2883 163.644 22.2175C165.715 22.5554 167.068 22.9356 167.068 24.2027C167.068 25.2587 166.011 26.019 164.151 26.019C162.165 26.019 160.77 24.963 160.516 22.9356Z" fill="#1EE883"/>
</svg>
