<svg width="20" height="21" viewBox="0 0 20 21" fill="none" xmlns="http://www.w3.org/2000/svg">
<path d="M13.081 13.8716C13.0091 13.7997 12.886 13.7952 12.8052 13.8617C12.8052 13.8617 12.6637 13.9815 12.5137 14.0938C11.2071 15.0726 9.58434 15.6523 7.82617 15.6523C3.50389 15.6523 0 12.1484 0 7.82617C0 3.50389 3.50389 0 7.82617 0C12.1484 0 15.6523 3.50389 15.6523 7.82617C15.6523 9.60254 15.0605 11.2407 14.0633 12.5542C13.9602 12.6899 13.8574 12.811 13.8574 12.811C13.7933 12.8882 13.7971 13.0065 13.8716 13.081L15.0788 14.2883C15.1508 14.3602 15.2709 14.3568 15.3429 14.2847L15.4706 14.1571C15.5445 14.0832 15.6609 14.0798 15.7334 14.1523L19.9475 18.3663C20.0187 18.4376 20.0164 18.5554 19.9471 18.6247L18.6247 19.9471C18.5533 20.0185 18.4388 20.0199 18.3663 19.9475L14.1523 15.7334C14.081 15.6621 14.085 15.5426 14.1571 15.4706L14.2847 15.3429C14.3586 15.269 14.3628 15.1534 14.2883 15.0788L13.081 13.8716ZM7.82617 14.5343C11.531 14.5343 14.5343 11.531 14.5343 7.82617C14.5343 4.12136 11.531 1.11802 7.82617 1.11802C4.12136 1.11802 1.11802 4.12136 1.11802 7.82617C1.11802 11.531 4.12136 14.5343 7.82617 14.5343Z" fill="white"/>
</svg>
